<svg width="68" height="22" viewBox="0 0 68 22" fill="none" xmlns="http://www.w3.org/2000/svg">
<g clip-path="url(#clip0_138_8604)">
<path d="M16.9861 21.4452L54.2397 18.0444H13.7571L16.9861 21.4452Z" fill="white" fill-opacity="0.8"/>
<path d="M62.877 4.01611C62.1127 4.03491 61.3699 4.28587 60.7378 4.73879V4.27117H58.2354V15.8339H60.7378V9.07482C60.7202 8.77869 60.7604 8.4819 60.8559 8.20276C60.9514 7.92361 61.1001 7.66802 61.293 7.45176C61.4859 7.2355 61.7187 7.06314 61.9773 6.94532C62.2358 6.8275 62.5146 6.76672 62.7963 6.76672C63.078 6.76672 63.3567 6.8275 63.6153 6.94532C63.8738 7.06314 64.1067 7.2355 64.2996 7.45176C64.4924 7.66802 64.6412 7.92361 64.7367 8.20276C64.8322 8.4819 64.8723 8.77869 64.8547 9.07482V15.8764H67.3571V9.07482C67.3571 6.26915 65.5408 4.01611 62.877 4.01611Z" fill="white" fill-opacity="0.8"/>
<path d="M52.4639 3.97363C49.5578 3.97363 47.4994 6.65177 47.4994 10.0526C47.4994 13.6234 50.0825 16.1315 52.706 16.1315C54.0379 16.1315 55.6928 15.6639 57.1054 13.5384L54.8855 12.1781C53.1904 14.8137 50.3247 13.4959 50.0018 10.8178H57.1861C57.8319 6.73679 55.2892 3.97363 52.4639 3.97363ZM50.1632 8.56473C50.6879 5.88659 54.159 5.71655 54.6434 8.56473H50.1632Z" fill="white" fill-opacity="0.8"/>
<path d="M41.7843 12.4381C41.762 12.968 41.8414 13.4971 42.0175 13.994C42.1937 14.4909 42.4631 14.9453 42.8097 15.3302C43.1562 15.715 43.5728 16.0224 44.0346 16.234C44.4964 16.4455 44.994 16.5569 45.4975 16.5616C46.3483 16.5302 47.1792 16.2822 47.9192 15.8389L46.3048 13.5433C46.0569 13.7296 45.7616 13.8333 45.4572 13.8409C45.2909 13.836 45.1273 13.795 44.9767 13.7205C44.8261 13.646 44.6917 13.5396 44.5819 13.408C44.472 13.2763 44.3892 13.1223 44.3384 12.9554C44.2876 12.7885 44.27 12.6124 44.2867 12.4381V7.46439H46.4258V4.70123H44.2867V1.81055H41.7843V4.70123H40.4524V7.46439H41.7843V12.4381Z" fill="white" fill-opacity="0.8"/>
<path d="M35.3506 16.1316C36.1149 16.1128 36.8577 15.8618 37.4898 15.4089V15.834H39.9922V4.27124H37.4898V11.0729C37.5074 11.369 37.4672 11.6658 37.3717 11.9449C37.2763 12.2241 37.1275 12.4797 36.9346 12.6959C36.7417 12.9122 36.5089 13.0845 36.2503 13.2024C35.9918 13.3202 35.713 13.381 35.4313 13.381C35.1496 13.381 34.8709 13.3202 34.6123 13.2024C34.3538 13.0845 34.1209 12.9122 33.928 12.6959C33.7352 12.4797 33.5864 12.2241 33.4909 11.9449C33.3954 11.6658 33.3553 11.369 33.3729 11.0729V4.27124H30.8705V11.0729C30.8705 13.8785 32.6867 16.1316 35.3506 16.1316Z" fill="white" fill-opacity="0.8"/>
<path d="M23.9685 11.1154L27.6817 15.8765H31.1528L26.1884 9.71252L30.4667 4.27122H26.9956L23.9685 8.30969V0.445312H21.4257V15.8765H23.9685V11.1154Z" fill="white" fill-opacity="0.8"/>
<path d="M17.5108 15.3238V15.834H20.0132V4.2712H17.5108V4.78132C16.8288 4.26301 16.0108 3.98077 15.1698 3.97363C12.3445 3.97363 10.165 6.69428 10.165 10.0526C10.165 13.4109 12.3042 16.1315 15.1698 16.1315C16.0118 16.131 16.8317 15.8481 17.5108 15.3238ZM12.7078 10.0951C12.7078 8.26716 13.7168 6.82181 15.1295 6.82181C16.5421 6.82181 17.5108 8.26716 17.5108 10.0951C17.5108 11.923 16.5421 13.3684 15.1295 13.3684C13.7168 13.3684 12.7078 11.923 12.7078 10.0951Z" fill="white" fill-opacity="0.8"/>
<path d="M9.35775 6.3543C9.35668 5.03554 8.85881 3.77112 7.97344 2.83862C7.08807 1.90611 5.88756 1.38174 4.63546 1.38062H0.357147V15.8341H2.98064V11.3705H4.79691L7.98546 15.8341H11.2547L7.38004 10.4353C7.99838 9.97411 8.50133 9.36192 8.84578 8.65115C9.19022 7.94039 9.3659 7.15225 9.35775 6.3543ZM4.67582 8.64985H2.98064V4.14377H4.67582C5.24316 4.14377 5.78726 4.38115 6.18843 4.80367C6.5896 5.2262 6.81498 5.79927 6.81498 6.39681C6.81498 6.99435 6.5896 7.56742 6.18843 7.98995C5.78726 8.41247 5.24316 8.64985 4.67582 8.64985Z" fill="white" fill-opacity="0.8"/>
</g>
<defs>
<clipPath id="clip0_138_8604">
<rect width="67" height="21" fill="white" transform="translate(0.357147 0.445312)"/>
</clipPath>
</defs>
</svg>
