<svg width="88" height="18" viewBox="0 0 88 18" fill="none" xmlns="http://www.w3.org/2000/svg">
<g clip-path="url(#clip0_138_8594)">
<path d="M58.2131 15.1283C59.3663 15.1536 60.4822 14.711 61.3161 13.8977L62.8557 15.5893C61.8384 16.6555 60.4323 17.4452 58.2406 17.4452C54.4857 17.4452 52.0622 14.9038 52.0622 11.4645C52.0471 10.6937 52.1811 9.92742 52.4565 9.20949C52.7319 8.49156 53.1433 7.8361 53.6672 7.28061C54.1911 6.72512 54.8171 6.2805 55.5096 5.9722C56.202 5.6639 56.9472 5.49796 57.7025 5.48389H57.9107C61.6381 5.48389 63.7513 8.37801 63.5667 12.3945H54.7449C55.0591 14.062 56.206 15.1243 58.2131 15.1243V15.1283ZM60.8997 10.4664C60.664 8.91114 59.7528 7.76472 57.9264 7.76472C57.1592 7.71898 56.4036 7.97266 55.8128 8.47434C55.2221 8.97602 54.8403 9.68816 54.7449 10.4664H60.8997Z" fill="white" fill-opacity="0.8"/>
<path d="M0.357147 15.0042L7.1404 7.97333H0.518186V5.76465H10.2826V8.01742L3.49936 15.0483H10.3729V17.253H0.357147V15.0042Z" fill="white" fill-opacity="0.8"/>
<path d="M17.989 15.1283C19.1421 15.1536 20.258 14.711 21.0919 13.8977L22.6316 15.5893C21.6143 16.6555 20.2082 17.4452 18.0165 17.4452C14.2615 17.4452 11.8381 14.9038 11.8381 11.4645C11.823 10.6944 11.9567 9.92873 12.2316 9.21131C12.5065 8.4939 12.9172 7.83879 13.4403 7.2834C13.9633 6.72802 14.5885 6.28324 15.28 5.97447C15.9715 5.6657 16.7158 5.499 17.4705 5.48389H17.6787C21.4061 5.48389 23.5193 8.37801 23.3347 12.3945H14.5208C14.835 14.062 15.9819 15.1243 17.989 15.1243V15.1283ZM20.6756 10.4664C20.4399 8.91114 19.5287 7.76472 17.7022 7.76472C16.935 7.71898 16.1794 7.97266 15.5887 8.47434C14.9979 8.97602 14.6161 9.68816 14.5208 10.4664H20.6756Z" fill="white" fill-opacity="0.8"/>
<path d="M37.9734 11.4767C37.9734 7.80089 40.6639 5.50402 43.6254 5.50402C44.336 5.49465 45.04 5.64409 45.688 5.94185C46.336 6.23961 46.9123 6.67849 47.3764 7.22767V0.445312H49.7724V17.2208H47.3764V15.6174C46.921 16.1897 46.3453 16.65 45.6919 16.9643C45.0385 17.2786 44.3242 17.4389 43.6018 17.4333C42.8565 17.4275 42.1196 17.272 41.4331 16.9755C40.7467 16.6791 40.1242 16.2476 39.6012 15.7056C39.0782 15.1637 38.6649 14.5219 38.3849 13.8169C38.1049 13.1119 37.9637 12.3576 37.9694 11.5969C37.9694 11.5488 37.9694 11.5047 37.9694 11.4606L37.9734 11.4767ZM47.51 11.4366C47.4949 10.4637 47.1038 9.53625 46.4217 8.85639C45.7396 8.17654 44.8218 7.79935 43.8684 7.80702C42.915 7.81468 42.0032 8.20659 41.3317 8.89733C40.6601 9.58808 40.2833 10.5217 40.2833 11.4947C40.2833 12.4677 40.6601 13.4013 41.3317 14.0921C42.0032 14.7828 42.915 15.1747 43.8684 15.1824C44.8218 15.1901 45.7396 14.8129 46.4217 14.133C47.1038 13.4532 47.4949 12.5257 47.51 11.5528V11.4366Z" fill="white" fill-opacity="0.8"/>
<path d="M65.1183 14.7837L67.2864 13.6333C67.574 14.1548 67.9955 14.5864 68.5056 14.8816C69.0157 15.1768 69.595 15.3245 70.1811 15.3088C71.5362 15.3088 72.2393 14.5993 72.2393 13.7936C72.2393 12.8757 70.9274 12.6672 69.4899 12.3706C67.5692 11.9698 65.5621 11.3124 65.5621 8.94736C65.5621 7.13151 67.255 5.45597 69.9258 5.47601C72.0272 5.47601 73.5865 6.32581 74.4703 7.70473L72.4867 8.83111C72.2085 8.41079 71.8299 8.06983 71.3866 7.84047C70.9433 7.61111 70.45 7.50092 69.9533 7.52034C68.665 7.52034 68.0091 8.1657 68.0091 8.89926C68.0091 9.72501 69.0499 9.9575 70.676 10.3223C72.5299 10.7231 74.6313 11.3565 74.6313 13.7455C74.6313 15.3489 73.2762 17.4694 70.0633 17.4454C67.7066 17.4454 66.0609 16.4793 65.1143 14.7797" fill="white" fill-opacity="0.8"/>
<path d="M81.1433 12.118L79.2422 14.2305V17.2208H76.8463V0.445312H79.2422V11.4286L84.3287 5.7285H87.247L82.8362 10.6469L87.357 17.2208H84.6469L81.1433 12.118Z" fill="white" fill-opacity="0.8"/>
<path d="M30.7305 5.5001C27.8829 5.5001 25.4987 7.38409 25.4987 10.5107V17.2209H27.9418V10.8073C27.9418 8.92335 29.0023 7.79697 30.813 7.79697C32.6237 7.79697 33.5271 8.92335 33.5271 10.8073V17.2209H35.9584V10.5067C35.9584 7.38008 33.5742 5.49609 30.7266 5.49609" fill="white" fill-opacity="0.8"/>
</g>
<defs>
<clipPath id="clip0_138_8594">
<rect width="87" height="17" fill="white" transform="translate(0.357147 0.445312)"/>
</clipPath>
</defs>
</svg>
