<svg width="63" height="21" viewBox="0 0 63 21" fill="none" xmlns="http://www.w3.org/2000/svg">
<g clip-path="url(#clip0_138_8590)">
<path d="M26.9676 0.957426L16.5866 8.74667C16.0987 6.83079 14.9712 5.12782 13.3817 3.90616C11.7921 2.68448 9.8311 2.01359 7.80757 1.99921H0.357147V19.9035H7.80757C9.84188 19.9303 11.8239 19.2747 13.422 18.0465C15.0201 16.8182 16.1373 15.0918 16.5866 13.1561L26.9676 20.9453L37.3485 13.1561V19.9035H49.0581V16.2694H41.3345V1.9871H37.0754V8.73453L27.2284 16.5237L25.105 14.7067L29.8981 11.0725L34.9519 7.18396L32.0215 4.84598L22.1745 12.3687L20.0511 10.5516L29.8981 3.28328L26.9676 0.945312V0.957426ZM4.34313 5.62126H7.53442C8.19479 5.62251 8.84713 5.76301 9.4467 6.03313C10.0557 6.30639 10.6041 6.69323 11.061 7.17184C11.5417 7.67561 11.9209 8.26331 12.1785 8.9041C12.708 10.266 12.708 11.77 12.1785 13.1319C11.9376 13.7707 11.58 14.3618 11.123 14.8762C10.6789 15.382 10.1338 15.7941 9.52117 16.0877C8.89011 16.3849 8.19796 16.5382 7.49715 16.5359H4.34313V5.63338V5.62126ZM62.3447 16.2694V19.9035H50.6475V1.9871H54.9067V16.2694H62.3571H62.3447Z" fill="white" fill-opacity="0.8"/>
</g>
<defs>
<clipPath id="clip0_138_8590">
<rect width="62" height="20" fill="white" transform="translate(0.357147 0.945312)"/>
</clipPath>
</defs>
</svg>
