<svg width="144" height="14" viewBox="0 0 144 14" fill="none" xmlns="http://www.w3.org/2000/svg">
<g clip-path="url(#clip0_138_8615)">
<path d="M27.9558 12.6432C27.9558 12.5467 27.9558 12.4018 27.9558 12.3052C27.9013 12.3052 24.3586 12.4983 22.6145 12.4983C20.3255 12.4983 17.0554 12.4501 17.0554 12.4501L2.01276 12.3535C2.01276 12.3052 2.01276 12.1121 2.01276 12.0638L17.1099 12.0155C17.1099 12.0155 20.38 12.0638 22.669 12.0638C24.4131 12.0638 27.9013 12.0638 27.9558 12.0638C27.9558 11.9189 27.9013 11.6774 27.9013 11.4843C27.8468 11.4843 24.3586 11.7258 22.669 11.7258C20.38 11.7258 17.1099 11.5809 17.1099 11.5809H13.2402L8.11698 11.436H2.06726C2.06726 11.3878 2.12177 11.1946 2.12177 11.1463C2.33977 11.1946 2.50328 11.2429 3.2663 11.2429C4.24734 11.2429 4.68336 11.0497 4.68336 11.0497C4.68336 11.0497 5.39189 11.2429 6.3184 11.2429C6.75443 11.2429 7.73551 10.8566 8.33499 11.0014C9.31607 11.2429 9.69754 10.8566 9.69754 10.8566C9.69754 10.8566 9.91555 11.098 10.3516 11.1946C10.6786 11.2429 11.1146 11.0497 11.1146 11.0497C11.1146 11.0497 11.6596 11.3878 13.2402 11.3878C15.1478 11.3878 15.6928 10.4703 15.6928 10.4703H15.7473C15.7473 10.4703 15.6928 10.7117 15.8018 10.9049C16.0198 11.2912 16.6193 11.3394 16.6193 11.3394C16.5648 10.2771 17.0554 9.55281 17.0554 9.55281H17.1099L17.0009 9.8425C16.7828 10.6151 17.1644 11.2912 17.1644 11.2912L17.3278 11.1946C17.3278 11.1946 17.1644 10.7117 17.3278 10.0357C17.4913 9.35965 17.7638 9.0216 17.7638 9.0216H17.8729C17.8729 9.0216 17.7093 9.55281 17.7093 9.93908C17.7093 10.2771 17.9274 11.098 18.6359 11.3394C19.1809 11.5326 19.6169 11.098 19.6169 11.098C19.6169 11.098 20.816 11.3878 21.797 11.3878C24.1406 11.3878 24.6856 11.0497 24.6856 11.0497C24.6856 11.0497 24.8491 11.2912 26.0482 11.2912C26.7567 11.2912 27.3017 11.2429 27.6287 11.1946C27.7377 11.1946 27.7923 11.1946 27.8468 11.1463C27.8468 10.9531 27.7923 10.8083 27.7377 10.6151C27.0837 7.37981 24.9582 4.57911 22.0151 2.79245L21.8515 3.22705C24.7401 4.91713 26.8657 7.57297 27.4652 10.7117C27.1382 10.8083 26.6477 10.9531 26.0482 10.9531C25.1217 10.9531 24.9037 10.7117 24.9037 10.7117C24.9037 10.7117 24.5766 10.9049 23.9771 10.9049C23.4321 10.9049 23.0506 10.5668 23.0506 10.5668C23.0506 10.5668 22.5055 11.0497 21.5245 11.0497C20.38 11.0497 19.7804 10.422 19.5624 10.1322C19.3444 9.8425 19.2354 9.60108 19.2354 9.60108H19.1809C19.1809 9.69765 19.2354 9.8425 19.2899 9.98739C19.4534 10.3737 19.5624 10.4703 19.6169 10.5668C19.6714 10.6151 19.7259 10.76 19.5624 10.8083C19.4534 10.8566 19.3989 10.76 19.3444 10.7117C19.2899 10.6151 19.0719 10.3737 18.9629 9.98739C18.7994 9.55281 18.7994 9.26307 18.7449 9.0216H18.6359C18.5814 9.21476 18.5814 9.55281 18.5814 9.93908C18.6359 10.3737 18.7449 10.6634 18.7994 10.76C18.7994 10.76 18.8539 10.8083 18.8539 10.8566C18.8539 11.0014 18.7449 11.0497 18.6359 11.0497C18.5269 11.0497 18.4179 10.9531 18.3634 10.8566C17.8729 10.1322 18.4724 8.6836 18.6359 8.24902C18.9084 7.62128 18.9629 6.99349 18.9629 6.99349C18.9629 6.99349 19.2899 6.51065 19.4534 6.1726C19.6714 5.73803 19.8349 5.35172 19.9985 5.20686C20.2165 5.01371 20.5979 4.53083 20.9795 3.90308C21.034 3.80651 21.361 3.13047 21.4155 2.9856C21.47 2.88903 21.5245 2.74417 21.579 2.64759C21.7425 2.06813 21.906 1.3921 21.906 1.29552C21.906 1.15066 21.6335 1.05408 21.6335 1.05408C21.6335 1.05408 21.361 0.957505 21.1975 0.957505C21.0885 0.957505 20.9795 1.05408 20.8705 1.10237C20.707 1.15066 20.6525 1.10237 20.6525 1.10237C20.6525 1.10237 20.4344 1.00579 20.3255 1.05408C20.2165 1.05408 20.1075 1.19894 19.9985 1.19894C19.8349 1.24723 19.7804 1.24723 19.7804 1.24723C19.7804 1.24723 19.6169 1.19894 19.5079 1.19894C19.3989 1.24723 19.2899 1.29552 19.0719 1.44039C17.5458 0.957505 15.9653 0.716064 14.3302 0.716064C6.86344 0.716064 0.759212 6.02776 0.650208 12.6432C0.650208 12.6915 0.650208 12.9812 0.650208 12.9812H27.9558C27.9558 12.9812 27.9558 12.6915 27.9558 12.6432ZM10.5696 10.2288C10.5151 10.2288 10.5696 10.1806 10.5151 10.1806C10.8966 9.11818 11.7686 6.94523 13.1857 5.30343C13.3492 5.35172 13.4582 5.4483 13.6217 5.49659C12.5861 6.51065 11.2236 8.49044 10.5696 10.2288ZM11.3871 10.5668C11.6596 9.60108 12.3682 7.57297 13.8942 5.64145C14.0577 5.73803 14.1667 5.78632 14.3302 5.88291C13.2947 7.09007 12.0412 9.0216 11.4961 10.6151C11.4416 10.6151 11.4416 10.5668 11.3871 10.5668ZM12.4772 10.8083C12.4227 10.8083 12.4772 10.8083 12.4227 10.8083C12.6406 10.0357 13.2402 8.00755 14.6572 6.02776C14.8207 6.12433 14.9298 6.1726 15.0388 6.26918C14.0577 7.57297 12.9677 9.35965 12.4772 10.8083ZM13.5127 10.8083C13.4582 10.8083 13.4582 10.8083 13.4582 10.8083C13.6762 10.084 14.1667 8.29728 15.3658 6.51065C15.5293 6.60723 15.6928 6.70381 15.7473 6.80039C14.8752 7.95928 13.9487 9.5045 13.5127 10.8083ZM17.1099 7.57297C16.8373 7.57297 16.4558 7.47639 16.3468 7.28323C16.4013 7.62128 16.8373 7.91097 17.2189 7.91097C17.1099 7.91097 17.0554 7.95928 16.9463 7.95928C16.4558 7.95928 16.0198 7.57297 16.0198 7.13839C16.0198 7.09007 16.0198 6.99349 16.0198 6.94523C16.4013 7.23497 17.2189 7.62128 17.7093 7.04181V7.09007C17.6548 7.33155 17.3823 7.57297 17.1099 7.57297ZM18.6359 5.68974C18.6359 5.8346 18.5269 5.88291 18.4179 5.93118C18.3634 5.97949 18.1999 6.02776 18.1999 6.07602H18.1454C18.1454 6.07602 18.0909 6.02776 18.0364 6.02776C18.0364 5.97949 18.0364 5.97949 18.0364 5.97949V5.93118V5.8346C18.0364 5.8346 17.9819 5.73803 18.0364 5.64145C18.0364 5.49659 18.1999 5.40001 18.1999 5.40001H18.2544C18.2544 5.40001 18.1999 5.49659 18.1454 5.59316C18.1454 5.64145 18.0909 5.78632 18.1454 5.88291V5.97949L18.1999 6.02776L18.2544 5.97949C18.3634 5.93118 18.3634 5.88291 18.3634 5.88291C18.3634 5.88291 18.2544 5.78632 18.3089 5.68974C18.3634 5.59317 18.5269 5.59316 18.5269 5.59316C18.5814 5.4483 18.5269 5.35172 18.5269 5.35172L18.6359 5.40001C18.5814 5.35172 18.6359 5.49659 18.6359 5.68974ZM19.3444 1.58525C19.5079 1.53696 19.5624 1.44039 19.7259 1.3921C19.8895 1.34381 19.9985 1.3921 20.1075 1.3921C20.2165 1.3921 20.38 1.24723 20.4889 1.24723C20.5979 1.24723 20.6525 1.29552 20.7615 1.29552C20.816 1.3921 21.143 1.19894 21.1975 1.19894C21.252 1.19894 21.47 1.19894 21.4155 1.3921C21.361 1.53696 21.252 1.97156 21.034 2.55101C20.9795 2.69588 20.8705 2.88903 20.7615 3.08218C20.6525 3.27534 20.5434 3.51677 20.38 3.70993C19.7804 4.57911 19.1809 4.38596 18.0364 4.86884C17.1099 5.25515 16.7283 5.49659 16.6193 5.64145C16.5103 5.54488 16.4558 5.54488 16.3468 5.49659C16.5103 5.35172 16.8918 5.11028 17.6548 4.77226C18.4724 4.38596 19.8349 3.90308 20.1075 3.46849C20.1075 3.4202 20.1075 3.4202 20.1075 3.37191C19.7804 3.56506 19.5079 3.66164 19.3989 3.75822C18.0909 4.33767 17.6003 4.48254 17.0009 4.77226C16.7283 4.91713 16.2923 5.11028 16.0198 5.30343C15.9653 5.25515 15.8563 5.20686 15.8018 5.15857C16.0743 4.96542 16.4558 4.77226 16.8373 4.57911C17.4368 4.33767 17.9274 4.09623 19.3444 3.37191C19.4534 3.32362 20.162 2.93732 20.707 2.55101C20.707 2.50272 20.707 2.45443 20.7615 2.40615C20.271 2.64759 18.6904 3.4202 18.3634 3.56506C17.0554 4.14452 17.1099 4.09623 16.5103 4.38596C16.1288 4.57911 15.7473 4.77226 15.4748 4.96542C15.4203 4.91713 15.3113 4.86884 15.2568 4.82055C15.5838 4.6274 15.8563 4.43425 16.2923 4.2411C16.8918 3.95137 16.9463 3.90308 18.3089 3.32362C18.9629 3.03389 20.162 2.30957 20.816 1.97156C20.816 1.92327 20.816 1.92327 20.816 1.87498C20.162 2.213 18.2544 3.08218 17.9819 3.22705C16.6738 3.75822 16.5103 3.80651 15.9108 4.09623C15.5838 4.2411 15.2568 4.43425 14.9843 4.57911C14.9298 4.53083 14.8752 4.48254 14.8207 4.43425C15.0388 4.28938 15.4203 4.04794 15.9108 3.80651C16.5103 3.51677 16.6193 3.46849 17.9274 2.88903C18.0909 2.84074 18.7449 2.50272 19.3444 2.16471C19.5079 2.06813 19.7259 1.97156 19.8895 1.87498C20.053 1.7784 20.162 1.68183 20.271 1.63354L20.2165 1.58525C19.944 1.68183 19.5624 1.87498 19.4534 1.92327C18.7449 2.26128 17.8729 2.64759 17.6003 2.74417C16.2923 3.32362 16.1288 3.37191 15.5293 3.66164C15.2023 3.80651 14.8207 3.99966 14.6027 4.19281C14.5482 4.14452 14.4937 4.09623 14.4392 4.04794C14.7117 3.85479 15.0933 3.61335 15.5293 3.4202C16.1288 3.13047 16.2378 3.08218 17.5458 2.50272C17.7638 2.40615 17.9819 2.30957 18.1454 2.213C18.1999 2.213 18.7994 1.92327 19.3444 1.58525ZM14.8753 1.29552C16.1288 1.29552 17.3823 1.44039 18.5269 1.7784C18.3089 1.92327 17.9819 2.06813 17.5458 2.26128C16.0198 2.93732 15.8563 2.9856 15.2023 3.27534C14.7662 3.46849 14.4392 3.66164 14.1667 3.85479C14.1667 3.85479 13.8942 3.51677 13.7307 3.4202C13.5672 3.32362 13.1857 3.22705 13.0767 3.17876C12.8587 3.08218 12.8042 2.9856 12.4772 2.88903C12.2047 2.79245 11.9867 2.84074 11.8231 2.84074C11.6596 2.79245 11.4961 2.74417 11.2236 2.74417C11.0601 2.74417 10.8421 2.84074 10.6786 2.84074C10.4606 2.84074 10.2971 2.79245 10.1336 2.79245C9.97006 2.84074 9.75204 2.9856 9.53402 2.9856C9.37051 3.03389 9.15255 2.9856 9.04355 2.9856C8.93454 3.03389 8.66202 3.22705 8.49851 3.27534C8.3895 3.32362 8.06247 3.32362 8.11698 3.56506C8.11698 3.75822 8.60751 3.80651 8.60751 3.80651C8.60751 3.80651 10.7331 4.04794 12.8042 5.01371C12.5316 5.35172 12.2047 5.68974 11.9866 6.07602C11.8231 6.02776 11.6051 5.97949 11.4961 5.97949C11.2781 5.97949 11.0601 6.07602 10.8966 6.02776C10.5696 6.02776 10.5696 5.97949 10.1881 6.02776C9.91555 6.07602 9.91555 6.12433 9.69754 6.1726C9.53402 6.22091 9.37051 6.1726 9.09805 6.22091C8.98904 6.26918 8.77103 6.46233 8.60751 6.51065C8.49851 6.55891 8.28049 6.55891 8.11698 6.65549C8.00797 6.75207 8.00797 6.84865 7.73551 6.94523C7.57199 7.04181 7.46299 6.99349 7.29947 7.13839C7.19046 7.33155 7.19046 7.47639 6.91794 7.66955C6.59092 7.91097 6.59092 8.10413 6.64542 8.15244C6.75443 8.3456 7.24497 8.15244 7.24497 8.15244C7.24497 8.15244 8.98904 7.62128 11.0601 7.5247C10.5151 8.49044 10.0791 9.40792 9.80654 10.0357C9.75204 10.1806 9.69754 10.3254 9.64303 10.422C9.58853 10.422 9.58853 10.422 9.58853 10.422C9.47952 10.3254 9.47952 10.1806 9.53402 9.8425C9.58853 9.5045 9.91555 8.82844 10.0246 8.6836H9.91555C9.80655 8.82844 9.47952 9.35965 9.42502 9.45623C9.31607 9.64939 9.26156 9.69765 9.04355 10.1322C8.98904 10.2288 8.88003 10.422 8.71652 10.422C8.60751 10.422 8.49851 10.3737 8.49851 10.2771C8.49851 10.2288 8.55301 10.1322 8.60751 10.1322C8.88003 9.74592 9.09805 9.35965 9.15255 9.1665H9.04355C9.04355 9.1665 8.28049 10.7117 6.64542 10.7117C6.10042 10.7117 5.50089 10.4703 5.50089 10.4703C5.50089 10.4703 4.73786 10.76 3.70233 10.76C2.88479 10.76 2.39427 10.6151 2.17626 10.5668C3.32081 5.35172 8.3895 1.29552 14.8753 1.29552Z" fill="white" fill-opacity="0.8"/>
<path d="M52.6994 12.6915L52.5904 12.6432C51.9364 12.3535 51.7184 11.5326 51.3914 10.8083L48.0668 2.9856H44.9056V3.22704L45.0692 3.27533C45.0692 3.27533 45.2327 3.32361 45.2872 3.3719C45.4506 3.46848 45.6141 3.66163 45.3961 4.14451C45.3961 4.38595 45.2872 4.5791 45.2872 4.5791L42.671 10.8083C42.3985 11.4843 42.1805 12.3535 41.5265 12.6432L41.3085 12.7398V12.9812H44.8511V12.7398L44.5786 12.6432C44.2516 12.5466 44.1971 12.2569 44.5241 11.436L44.9056 10.3254H48.6663C48.7753 10.5668 48.8843 10.9048 49.0478 11.3877C49.2113 11.8706 49.4838 12.4984 49.1023 12.6915L48.8843 12.7881V13.0295H52.6994V12.6915ZM48.1213 8.68358H45.6141L46.8677 5.59316L48.1213 8.68358Z" fill="white" fill-opacity="0.8"/>
<path d="M75.7 2.9856V3.22704L75.9725 3.32361C76.4085 3.46848 76.354 4.38595 76.354 4.96541V11.0014C76.354 11.4843 76.354 12.4984 75.9725 12.6432L75.7 12.7398V12.9812H79.2967V12.7398L79.0242 12.6432C78.5881 12.4984 78.6426 11.4843 78.6426 11.0014V4.96541C78.6426 4.14451 78.7516 3.42019 79.0242 3.32361L79.2967 3.22704V2.9856H75.7Z" fill="white" fill-opacity="0.8"/>
<path d="M62.1824 2.9856V3.22704L62.4549 3.32361C62.891 3.46848 62.8365 4.38595 62.8365 4.96541V11.0014C62.8365 11.4843 62.8365 12.4984 62.4549 12.6432L62.1824 12.7398V12.9812H65.7797V12.7398L65.5072 12.6432C65.0711 12.4984 65.1257 11.4843 65.1257 11.0014V4.96541C65.1257 4.14451 65.2347 3.42019 65.5072 3.32361L65.7797 3.22704V2.9856H62.1824Z" fill="white" fill-opacity="0.8"/>
<path d="M41.9632 2.11649C41.1457 1.39217 39.8921 1.00586 38.5296 1.00586H33.8969V1.2473L34.1149 1.29559C34.7144 1.53703 34.6599 2.84081 34.6599 3.80657V10.1323V10.3738C34.6599 11.0981 34.6599 12.4019 34.1149 12.595L33.8969 12.6916V12.933H38.1481V12.6916L37.9846 12.595C37.2215 12.1604 37.2215 11.1947 37.2215 10.1806V8.05592L37.6576 8.20081C37.6576 8.20081 38.366 8.44223 39.0201 8.44223C40.9822 8.44223 43.1077 7.23502 43.1077 4.62747C43.1077 3.66171 42.7263 2.79252 41.9632 2.11649ZM37.8211 7.52476L37.4395 7.57302H37.2215V3.08225C37.494 3.03396 37.8211 3.03396 38.257 3.03396C39.1291 3.03396 39.8376 3.22712 40.2191 3.61342C40.6007 3.95144 40.7642 4.38603 40.7642 5.01378C40.7642 6.5107 39.2381 7.42818 37.8211 7.52476Z" fill="white" fill-opacity="0.8"/>
<path d="M99.8993 1.00595H97.9916H92.5412V1.29568L92.8682 1.39226C93.3588 1.58541 93.3588 2.69603 93.3588 3.32378V10.567C93.3588 11.1464 93.3588 12.3537 92.8682 12.5468L92.5412 12.6434V12.9331H96.629V12.6434L96.302 12.5468C95.8115 12.3537 95.8115 11.1948 95.8115 10.567V8.20085H98.2096C98.2096 8.20085 99.2452 8.10427 99.4087 8.49059L99.4632 8.63549L99.7358 8.68375L99.8993 5.49674H99.5178L99.4632 5.68989C99.3542 5.93132 98.4277 6.0279 98.1551 5.97964H95.757C95.757 4.91729 95.757 3.61351 95.757 3.03405H98.7002C99.4087 3.03405 99.7903 3.17892 99.8993 3.51693L99.9532 3.71008H100.28L101.043 0.861084C101.152 0.95766 100.171 1.00595 99.8993 1.00595Z" fill="white" fill-opacity="0.8"/>
<path d="M60.9833 10.2771L60.9288 10.3254C60.8198 10.422 60.7108 10.4702 60.7108 10.4702C60.0568 10.8566 58.9667 11.2911 57.8769 11.2911C57.0049 11.2911 56.2963 11.0497 55.6968 10.5668C54.9883 9.93908 54.6068 8.92503 54.6068 7.76613C54.6068 5.93118 55.8058 4.67567 57.5499 4.67567C58.3674 4.67567 59.1847 4.91711 60.0023 5.39999L60.2203 5.54485L60.6563 5.78629V5.3517V3.37189V3.17874L60.3293 3.13045C59.2392 2.889 58.3674 2.74414 57.6044 2.74414C56.0783 2.74414 54.7703 3.22702 53.7893 4.09621C52.7537 5.01368 52.1542 6.41402 52.1542 7.95923C52.1542 9.55276 52.6992 10.8566 53.7348 11.774C54.7703 12.6915 56.2963 13.1744 58.0404 13.1744C58.9124 13.1744 59.7297 13.0295 60.3838 12.6915H60.4383L60.5473 12.6432L60.6018 12.5466L61.3649 10.2288H60.9833V10.2771Z" fill="white" fill-opacity="0.8"/>
<path d="M88.8343 10.2771L88.5073 10.4702C87.8533 10.8566 86.7632 11.2911 85.6731 11.2911C84.801 11.2911 84.0925 11.0497 83.4929 10.5668C82.7844 9.93908 82.4029 8.92503 82.4029 7.76613C82.4029 5.93118 83.602 4.67567 85.3461 4.67567C86.1636 4.67567 86.9812 4.91711 87.7988 5.39999L88.4528 5.78629V3.37189V3.17874L88.1803 3.13045C87.0902 2.889 86.2181 2.74414 85.4551 2.74414C83.929 2.74414 82.6209 3.22702 81.6398 4.09621C80.6042 5.01368 80.0047 6.41402 80.0047 7.95923C80.0047 9.55276 80.5497 10.8566 81.5853 11.774C82.6209 12.6915 84.147 13.1744 85.8911 13.1744C86.7632 13.1744 87.5807 13.0295 88.2348 12.6915L88.3983 12.6432L89.2159 10.2288H88.8343V10.2771Z" fill="white" fill-opacity="0.8"/>
<path d="M73.7917 2.98573H70.7946H67.1973V3.22718L67.4699 3.32375C67.9059 3.46861 67.8514 4.38609 67.8514 4.96555V11.0015C67.8514 11.4844 67.8514 12.4985 67.4699 12.6434L67.1973 12.7399V12.9814H70.7946V12.7399L70.5221 12.6434C70.0861 12.4985 70.1406 11.4844 70.1406 11.0015V9.02175H72.1027C72.1027 9.02175 72.9742 8.97348 73.0832 9.26317L73.1377 9.40806L73.3557 9.45633L73.5192 6.80048H73.2467L73.1922 6.94538C73.1377 7.13854 72.3207 7.23511 72.1027 7.1868H70.0861C70.0861 6.31764 70.0861 5.20699 70.0861 4.7241H72.7562C73.3557 4.7241 73.6827 4.86897 73.7917 5.11041L73.8462 5.25527H74.1188L74.7728 2.88916C74.8818 2.88916 74.0098 2.98573 73.7917 2.98573Z" fill="white" fill-opacity="0.8"/>
<path d="M120.009 2.98579V3.22723L120.227 3.32381C120.718 3.61353 120.772 4.04813 120.772 4.86902V9.45639C119.246 7.52486 115.868 2.9375 115.868 2.9375H113.252V3.17894L113.47 3.27552C113.96 3.56525 114.015 4.04813 114.015 4.86902V10.8568C114.015 11.6777 114.015 12.3054 113.47 12.5951L113.306 12.6917V12.9331H116.631V12.6917L116.413 12.5951C115.922 12.4985 115.922 11.6777 115.922 10.8568V6.5108L119.192 10.6636C119.791 11.4362 120.772 12.5468 121.808 12.8365C122.626 13.078 122.789 13.0297 122.789 13.0297V4.91731C122.789 4.09642 122.789 3.61353 123.334 3.32381L123.552 3.22723V2.98579H120.009Z" fill="white" fill-opacity="0.8"/>
<path d="M133.417 4.43443C132.327 3.46867 130.692 2.9375 128.676 2.9375H124.588V3.17894L124.806 3.22723L124.915 3.27552C125.405 3.42038 125.296 4.43443 125.296 4.9656V11.0016C125.296 11.7259 125.296 12.3537 124.697 12.6917L124.533 12.7883V12.9814H128.567C132.272 12.9814 134.889 10.905 134.889 7.91118C134.889 6.5108 134.398 5.30362 133.417 4.43443ZM131.509 10.4704C130.746 11.0982 129.711 11.4845 128.403 11.4845C128.131 11.4845 127.967 11.4362 127.64 11.3879V4.62759C128.076 4.53101 128.294 4.48272 128.676 4.48272C129.929 4.48272 130.855 4.77245 131.509 5.35191C132.163 5.93138 132.49 6.89712 132.49 8.05602C132.49 9.02181 132.109 9.89097 131.509 10.4704Z" fill="white" fill-opacity="0.8"/>
<path d="M111.234 11.1463V4.86883C111.234 4.14451 111.234 3.46848 111.779 3.32361L111.997 3.27533L111.834 2.9856H108.128V3.22704L108.346 3.27533C108.891 3.46848 108.836 4.24109 108.836 4.77226V9.55279C108.836 10.0356 108.836 10.2771 108.564 10.6151C108.128 11.1463 107.31 11.4843 106.438 11.4843C105.73 11.4843 105.239 11.3394 104.858 11.0014C104.367 10.6151 104.149 9.89079 104.149 8.97332V4.72397C104.149 4.14451 104.149 3.3719 104.64 3.22704L104.858 3.17875V2.9856H101.043V3.22704L101.261 3.27533C101.751 3.42019 101.806 4.33767 101.751 5.06199V9.16648C101.751 10.1805 101.751 11.1946 102.678 12.1121C103.441 12.8364 104.585 13.2227 105.894 13.2227C106.819 13.2227 107.964 12.7881 108.782 12.2086V12.9812H111.888V12.7398L111.67 12.6915C111.234 12.4984 111.18 11.8706 111.234 11.1463Z" fill="white" fill-opacity="0.8"/>
<path d="M143.064 9.93914C143.064 10.7117 142.683 11.4844 141.974 12.0638C141.156 12.7881 140.012 13.1744 138.758 13.1744C137.777 13.1744 136.851 13.0296 135.979 12.7398H135.924L135.815 12.6916V12.595V12.5467L135.379 10.76L135.325 10.4703L135.27 10.2289H135.543L135.924 10.6151C136.742 11.2912 137.886 11.5809 138.922 11.5809C139.63 11.5809 140.666 11.1464 140.666 10.422C140.666 9.60109 139.794 9.21482 138.649 8.73193C137.287 8.15245 135.652 7.42813 135.652 5.5932C135.652 3.5168 137.832 2.79248 139.685 2.79248C140.502 2.79248 141.265 2.88906 141.974 3.1305H142.029L142.192 3.17879V3.32365V3.37194V4.62743V5.06203V5.35175L141.811 5.11031L141.429 4.91716C141.102 4.72401 140.284 4.43428 139.576 4.43428C139.303 4.43428 138.704 4.48257 138.322 4.82058C138.159 4.96545 138.05 5.1586 138.05 5.44833C138.05 6.17266 139.031 6.60724 140.066 7.04182C141.374 7.62129 143.064 8.34561 143.064 9.93914Z" fill="white" fill-opacity="0.8"/>
</g>
<defs>
<clipPath id="clip0_138_8615">
<rect width="143" height="13" fill="white" transform="translate(0.357178 0.445312)"/>
</clipPath>
</defs>
</svg>
