<svg width="121" height="24" viewBox="0 0 121 24" fill="none" xmlns="http://www.w3.org/2000/svg">
<g clip-path="url(#clip0_138_8640)">
<path fill-rule="evenodd" clip-rule="evenodd" d="M10.7091 16.2417L14.0499 19.6553L11.263 22.6237C10.3592 23.5862 8.89371 23.5862 7.98998 22.6237L1.03497 15.2161C0.131246 14.2533 0.131246 12.6927 1.03497 11.7302C1.93899 10.7677 3.40422 10.7677 4.30795 11.7302L9.62647 17.3948L10.7091 16.2417ZM11.5775 15.3168L14.5365 12.1652L17.8092 15.6512L15.0845 18.5533L11.5775 15.3168Z" fill="#CECCD3"/>
<path fill-rule="evenodd" clip-rule="evenodd" d="M24.9657 18.4879L21.4785 15.2301L29.6732 6.50217C30.5769 5.53964 32.0422 5.53964 32.9462 6.50217C33.8499 7.4647 33.8499 9.02527 32.9462 9.98811L24.9657 18.4879ZM23.8812 19.6429L21.0826 22.6236C20.1786 23.5862 18.7133 23.5862 17.8096 22.6236L5.94484 9.98687C5.04111 9.02403 5.04111 7.46347 5.94484 6.50094C6.84857 5.5381 8.3138 5.5381 9.21782 6.50094L19.4461 17.3947L20.5965 16.1695L23.8812 19.6429Z" fill="#CECCD3"/>
<path fill-rule="evenodd" clip-rule="evenodd" d="M19.9373 14.4307L23.1948 10.9286L29.2658 17.3947L34.5832 11.7313C35.4872 10.7688 36.9525 10.7688 37.8562 11.7313C38.7599 12.6942 38.7599 14.2547 37.8562 15.2173L30.9023 22.6236C29.9986 23.5861 28.5334 23.5861 27.6296 22.6236L19.9373 14.4307ZM18.5878 12.9935L10.8548 4.75732C9.9511 3.79479 9.9511 2.23422 10.8548 1.27169C11.7588 0.308851 13.2241 0.308851 14.1278 1.27169L21.8688 9.51638L18.5878 12.9935Z" fill="#CECCD3"/>
<path fill-rule="evenodd" clip-rule="evenodd" d="M28.0364 1.27292C27.1327 0.310393 25.6675 0.310393 24.7634 1.27292L14.5363 12.1655L17.8093 15.6514L28.0364 4.75886C28.9401 3.79602 28.9401 2.23545 28.0364 1.27292Z" fill="#CECCD3"/>
<path fill-rule="evenodd" clip-rule="evenodd" d="M50.5148 2.97532H47.6688V20.7807H58.0965V18.0917H50.5148V2.97532ZM64.2559 8.32904C65.9862 8.32904 67.1474 9.08002 67.7849 10.0006L67.9215 8.57129H70.3804V20.7807H67.9215L67.7849 19.3514C67.1474 20.272 65.9862 21.0229 64.2559 21.0229C61.1367 21.0229 59.0193 18.334 59.0193 14.676C59.0193 10.9938 61.1367 8.32904 64.2559 8.32904ZM64.8478 10.8969C63.0719 10.8969 61.7969 12.3746 61.7969 14.676C61.7969 16.9774 63.0719 18.4551 64.8478 18.4551C66.2139 18.4551 67.0336 17.6799 67.6483 16.6382V12.7138C67.0336 11.6721 66.2139 10.8969 64.8478 10.8969ZM77.2684 4.47727H74.5362V8.57129H72.3733V11.0422H74.5362V16.4686C74.5362 19.4241 76.1983 21.0229 78.8166 21.0229C79.955 21.0229 80.7974 20.6838 81.3666 20.2962L80.638 18.019C80.2965 18.2371 79.7956 18.4066 79.067 18.4066C77.997 18.4066 77.2684 17.6799 77.2684 16.4444V11.0422H80.7291V8.57129H77.2684V4.47727ZM86.6836 4.47727H83.9514V8.57129H81.7885V11.0422H83.9514V16.4686C83.9514 19.4241 85.6135 21.0229 88.2318 21.0229C89.3702 21.0229 90.2126 20.6838 90.7818 20.2962L90.0532 18.019C89.7117 18.2371 89.2108 18.4066 88.4822 18.4066C87.4121 18.4066 86.6836 17.6799 86.6836 16.4444V11.0422H90.1443V8.57129H86.6836V4.47727ZM95.3474 8.57129H92.6153V20.7807H95.3474V8.57129ZM93.9813 2.87842C93.0251 2.87842 92.2965 3.62939 92.2965 4.67107C92.2965 5.71274 93.0251 6.46372 93.9813 6.46372C94.9603 6.46372 95.6889 5.71274 95.6889 4.67107C95.6889 3.62939 94.9603 2.87842 93.9813 2.87842ZM103.601 8.32904C100.072 8.32904 97.7273 10.9938 97.7273 14.676C97.7273 18.334 100.095 21.0229 103.624 21.0229C105.696 21.0229 107.267 20.0297 108.292 18.334L106.334 16.7109C105.787 17.6799 104.899 18.4793 103.647 18.4793C101.621 18.4793 100.505 16.8078 100.505 14.676C100.505 12.52 101.575 10.8727 103.624 10.8727C104.899 10.8727 105.742 11.6479 106.265 12.6169L108.246 11.018C107.222 9.32227 105.696 8.32904 103.601 8.32904ZM114.975 8.32904C118.504 8.32904 120.234 11.1391 120.234 14.5549V15.5723H112.129C112.197 17.5103 113.29 18.5762 115.202 18.5762C116.546 18.5762 117.525 17.9464 118.048 17.1712L119.938 18.8185C118.8 20.272 117.297 21.0229 115.18 21.0229C111.628 21.0229 109.351 18.3582 109.351 14.7002C109.351 11.018 111.673 8.32904 114.975 8.32904ZM114.929 10.6546C113.313 10.6546 112.22 11.7932 112.129 13.489H117.547C117.479 11.8174 116.568 10.6546 114.929 10.6546Z" fill="white" fill-opacity="0.8"/>
</g>
<defs>
<clipPath id="clip0_138_8640">
<rect width="120" height="22.8" fill="white" transform="translate(0.357178 0.54541)"/>
</clipPath>
</defs>
</svg>
