<svg width="81" height="26" viewBox="0 0 81 26" fill="none" xmlns="http://www.w3.org/2000/svg">
<g clip-path="url(#clip0_138_8631)">
<path d="M49.0791 14.4523C49.0791 14.4523 48.9187 13.8301 48.9187 13.3689V6.15412H51.6531V20.0507L42.8987 12.3904C42.4303 11.9698 42.1531 11.5002 42.1531 11.5002C42.1531 11.5002 42.2919 12.018 42.2919 12.4661L42.2895 19.7371H39.5535V5.89502L48.2275 13.4015C48.6927 13.8178 49.0791 14.4523 49.0791 14.4523Z" fill="white" fill-opacity="0.8"/>
<path d="M73.8381 6.15527C78.1713 6.15527 79.2809 7.96098 79.2809 10.5563C79.2809 12.4372 77.9701 14.2801 75.3265 14.4982L75.0369 14.513C75.0369 14.513 75.2925 14.5608 75.5597 14.8325L80.3573 19.7365H76.6501L69.9525 12.5505H73.2873C76.2745 12.5505 76.3613 10.8872 76.3817 10.4679C76.4377 9.38838 76.1109 8.52526 73.8329 8.52526H70.0197V19.7365H67.1781V6.15527H73.8381Z" fill="white" fill-opacity="0.8"/>
<path d="M52.8832 13.1399C52.8832 7.45011 57.39 5.95508 61.1784 5.95508C62.6952 5.95508 64.0384 6.09879 65.452 6.41538L65.456 9.30062C64.6432 9.03644 63.0108 8.45652 61.1788 8.45652C57.5872 8.45652 55.8432 9.93084 55.8432 13.1394C55.8432 15.7677 57.7232 17.4419 61.1788 17.4419C63.0108 17.4419 64.8452 16.9812 65.7336 16.635L65.7284 19.434C64.3164 19.7489 62.6956 19.9434 61.1788 19.9434C57.1324 19.9438 52.8832 17.8655 52.8832 13.1399Z" fill="white" fill-opacity="0.8"/>
<path d="M22.1121 6.50464L24.7789 9.15867C24.7061 9.19291 24.6221 9.23518 24.5233 9.28759C24.3689 9.37255 24.1849 9.48625 23.9645 9.64772C23.5249 9.96684 22.9521 10.4766 22.2193 11.3122L17.0073 17.1406C16.1141 18.1382 15.2065 18.9286 14.3625 19.3466L11.6941 16.6917C11.7669 16.6558 11.8509 16.6161 11.9481 16.5611C12.1025 16.4779 12.2865 16.3625 12.5069 16.2035C12.9453 15.8815 13.5197 15.3747 14.2533 14.5377L19.4641 8.71908C20.3577 7.72281 21.2669 6.92267 22.1121 6.50464Z" fill="white" fill-opacity="0.8"/>
<path d="M11.7888 20.5935C12.9676 20.5935 14.0512 20.3466 14.7864 19.9438C15.1224 19.7587 15.602 19.44 16.0144 19.1001C16.4252 18.7616 17.0076 18.2341 17.5 17.6808L22.7172 11.8689C24.0332 10.4043 24.824 9.95198 25.304 9.77403L27.98 12.4526C27.4216 13.0836 20.7612 20.5795 20.7612 20.5795C20.3072 21.0977 19.8288 21.5978 19.5036 21.9127C19.1912 22.217 18.6568 22.6705 18.3808 22.884C16.8144 24.0967 14.722 25.0803 11.9044 25.0803C5.51998 25.0803 0.357178 19.5892 0.357178 13.2662C0.357178 5.42251 6.15678 0.871047 11.4388 0.871047C13.058 0.820325 14.3572 1.10817 15.3844 1.47675C16.3336 1.81786 17.0504 2.2304 17.5704 2.51106C16.9556 2.9274 16.3608 3.49507 15.3804 4.60165L14.3092 5.81687C14.0628 5.71669 12.97 5.31388 11.5672 5.3591C8.17798 5.46477 4.47118 8.36777 4.60478 13.1301C4.72918 17.5831 8.20278 20.5935 11.7888 20.5935Z" fill="white" fill-opacity="0.8"/>
<path d="M21.6532 5.947C21.316 6.1334 20.8376 6.45126 20.4228 6.7911C20.0132 7.12967 19.4312 7.65718 18.9372 8.2092L13.7212 14.0224C12.4052 15.487 11.614 15.9376 11.1344 16.1159L8.4584 13.4399C9.0184 12.8072 15.6776 5.31255 15.6776 5.31255C16.1328 4.79434 16.61 4.29431 16.9352 3.97814C17.2476 3.67381 17.782 3.22196 18.0604 3.00681C19.624 1.79413 21.7192 0.810547 24.5368 0.810547C30.9208 0.810547 36.0812 6.30205 36.0812 12.6233C36.0812 20.4696 30.2828 25.0185 24.9996 25.0185C23.3816 25.0705 22.0812 24.7826 21.0556 24.4111C20.104 24.0713 19.3844 23.6562 18.8656 23.3768C19.5152 22.9135 20.0712 22.4055 21.0592 21.29L22.1288 20.0748C22.3752 20.1733 23.4684 20.5765 24.8724 20.5325C28.2604 20.4256 31.9684 17.5197 31.8348 12.7585C31.7092 8.30769 28.2332 5.29607 24.6492 5.29607C23.4684 5.29607 22.3896 5.54418 21.6532 5.947Z" fill="white" fill-opacity="0.8"/>
</g>
<defs>
<clipPath id="clip0_138_8631">
<rect width="80" height="24.2697" fill="white" transform="translate(0.357178 0.810547)"/>
</clipPath>
</defs>
</svg>
