<svg width="55" height="21" viewBox="0 0 55 21" fill="none" xmlns="http://www.w3.org/2000/svg">
<path d="M5.83233 6.05063H0.357178L0.357178 0.945312H17.3734V6.05063H11.8971V20.9453H5.83233V6.05063ZM18.315 0.945312H34.8604V6.05063H24.3803V8.5133H34.8604V13.3174H24.3803V15.84H34.8604V20.9453H18.315V0.945312ZM35.8607 0.945312H45.8114C52.3475 0.945312 54.6429 5.87047 54.6429 10.9157C54.6429 17.0417 51.4628 20.9453 44.6335 20.9453H35.8607V0.945312ZM41.926 15.84H44.28C48.0482 15.84 48.5793 12.7175 48.5793 10.8557C48.5793 9.59393 48.1671 6.11074 43.8092 6.11074H41.8656L41.926 15.84Z" fill="white" fill-opacity="0.8"/>
</svg>
